<svg width="100%" height="100%" viewBox="0 0 334 77" version="1.1" xmlns="http://www.w3.org/2000/svg" xmlns:xlink="http://www.w3.org/1999/xlink" xml:space="preserve" xmlns:serif="http://www.serif.com/" style="fill-rule:evenodd;clip-rule:evenodd;stroke-linejoin:round;stroke-miterlimit:2;">
    <g transform="matrix(1,0,0,1,-2243,-1288)">
        <g transform="matrix(1,0,0,1,1898.13,942.817)">
            <g>
                <path d="M345.532,396.548C345.532,382.505 356.957,371.08 371,371.08C385.045,371.08 396.47,382.505 396.47,396.548C396.47,410.591 385.045,422.017 371,422.017C356.957,422.017 345.532,410.592 345.532,396.548ZM360.785,396.548C360.785,402.181 365.368,406.764 371,406.764C376.634,406.764 381.216,402.181 381.216,396.548C381.216,390.916 376.634,386.333 371,386.333C365.368,386.333 360.785,390.916 360.785,396.548Z" style="fill:rgb(242,204,95);fill-rule:nonzero;"/>
                <rect x="345.53" y="347.449" width="15.255" height="73.483" style="fill:rgb(232,99,109);fill-rule:nonzero;"/>
                <path d="M360.785,373.234L360.785,419.862C351.817,415.917 345.532,406.958 345.532,396.548C345.532,386.138 351.817,377.18 360.785,373.234Z" style="fill:rgb(240,163,99);fill-rule:nonzero;"/>
            </g>
            <g transform="matrix(1.43,0,0,1.43,-228.14,420.86)">
                <rect x="444.17" y="-34.062" width="10.667" height="34.125" style="fill:rgb(242,204,95);fill-rule:nonzero;"/>
                <g transform="matrix(1,0,0,1,349.503,-117.1)">
                    <circle cx="100" cy="72.691" r="5.991" style="fill:rgb(232,99,109);"/>
                </g>
            </g>
            <g>
                <rect x="434.387" y="372.459" width="26.546" height="12.48" style="fill:rgb(232,99,109);fill-rule:nonzero;"/>
                <path d="M453.203,422.017C442.828,422.017 434.387,413.577 434.387,403.201L434.387,355.068L449.64,355.068L449.64,403.201C449.642,405.155 451.249,406.762 453.203,406.764C454.139,406.764 454.833,406.413 455.251,406.117L464.056,418.573C460.885,420.821 457.09,422.025 453.203,422.017Z" style="fill:rgb(242,204,95);fill-rule:nonzero;"/>
                <rect x="434.387" y="372.459" width="15.253" height="12.48" style="fill:rgb(240,163,99);fill-rule:nonzero;"/>
            </g>
            <g>
                <path d="M488.815,420.878L473.56,420.878L473.56,364.824C473.56,354.449 482.002,346.008 492.377,346.008C496.287,346.008 500.04,347.198 503.227,349.451L494.425,361.909C493.826,361.486 493.11,361.259 492.377,361.261C490.423,361.263 488.816,362.87 488.814,364.824L488.814,420.878L488.815,420.878Z" style="fill:rgb(242,204,95);fill-rule:nonzero;"/>
                <rect x="473.562" y="372.412" width="24.667" height="12.48" style="fill:rgb(232,99,109);fill-rule:nonzero;"/>
                <rect x="473.562" y="372.412" width="15.253" height="12.48" style="fill:rgb(240,163,99);fill-rule:nonzero;"/>
            </g>
            <path d="M541.109,372.057L541.109,396.957C541.109,402.305 536.758,406.656 531.41,406.656C526.062,406.656 521.712,402.305 521.712,396.957L521.712,372.057L506.458,372.057L506.458,396.957C506.458,410.716 517.652,421.909 531.41,421.909C545.168,421.909 556.362,410.716 556.362,396.957L556.362,372.057L541.109,372.057Z" style="fill:rgb(242,204,95);fill-rule:nonzero;"/>
            <path d="M591.984,371.027C578.226,371.027 567.032,382.221 567.032,395.979L567.032,420.879L582.286,420.879L582.286,395.979C582.286,390.631 586.636,386.281 591.984,386.281C597.332,386.281 601.683,390.631 601.683,395.979L601.683,420.879L616.936,420.879L616.936,395.979C616.936,382.221 605.743,371.027 591.984,371.027Z" style="fill:rgb(242,204,95);fill-rule:nonzero;"/>
            <g>
                <rect x="628.738" y="347.449" width="15.254" height="73.483" style="fill:rgb(242,204,95);fill-rule:nonzero;"/>
                <path d="M678.456,372.133L658.54,372.133L628.74,396.533L658.54,420.933L678.457,420.933L648.657,396.533L678.456,372.133Z" style="fill:rgb(232,99,109);fill-rule:nonzero;"/>
                <path d="M643.992,384.044L628.738,396.532L643.992,409.022L643.992,384.044Z" style="fill:rgb(240,163,99);fill-rule:nonzero;"/>
            </g>
        </g>
    </g>
</svg>
