<?xml version="1.0" encoding="UTF-8" standalone="no"?>
<!DOCTYPE svg PUBLIC "-//W3C//DTD SVG 1.1//EN" "http://www.w3.org/Graphics/SVG/1.1/DTD/svg11.dtd">
<svg width="100%" height="100%" viewBox="0 0 1024 1024" version="1.1" xmlns="http://www.w3.org/2000/svg" xmlns:xlink="http://www.w3.org/1999/xlink" xml:space="preserve" xmlns:serif="http://www.serif.com/" style="fill-rule:evenodd;clip-rule:evenodd;stroke-linejoin:round;stroke-miterlimit:2;">
    <g transform="matrix(1,0,0,1,-2295,-3247)">
        <g id="Icon-Android" serif:id="Icon Android" transform="matrix(0.64,0,0,0.64,1239,3247)">
            <rect x="1650" y="0" width="1600" height="1600" style="fill:none;"/>
            <g transform="matrix(4.88281,0,0,4.88281,1050,-353.125)">
                <g transform="matrix(8.70358,0,0,8.70358,-2591.93,-1598.76)">
                    <circle cx="330.744" cy="210.823" r="15.883" style="fill:rgb(53,81,122);"/>
                </g>
                <g id="Logo" transform="matrix(0.995514,0,0,0.995514,0.0587265,1.55422)">
                    <g transform="matrix(0.429422,0,0,0.429422,287.953,235.663)">
                        <g id="Logo1" serif:id="Logo">
                            <g transform="matrix(1,0,0,1,-256,-256)">
                                <g transform="matrix(1.02164,0,0,1.02187,-5.54064,-5.59851)">
                                    <path d="M416,78.973C416,53.048 394.948,32 369.017,32L142.983,32C117.052,32 96,53.048 96,78.973L96,433.027C96,458.952 117.052,480 142.983,480L369.017,480C394.948,480 416,458.952 416,433.027L416,78.973Z" style="fill:rgb(242,204,94);"/>
                                    <g transform="matrix(0.928989,0,0,0.928784,18.1788,18.2314)">
                                        <path d="M83.814,447.648C83.785,446.935 83.77,446.217 83.77,445.495L83.77,441.334C95.171,414.791 114.622,392.208 141.118,374.979C164.361,359.869 192.09,349.662 221.479,345.155L290.521,345.155C319.91,349.662 347.639,359.869 370.882,374.979C397.378,392.208 416.829,414.791 428.23,441.334L428.23,445.495C428.23,446.217 428.215,446.935 428.186,447.648L428.23,447.648L428.23,449.107C428.23,475.598 406.722,497.107 380.23,497.107L379.252,497.107C378.358,497.153 377.462,497.176 376.561,497.176L135.439,497.176C134.538,497.176 133.642,497.153 132.748,497.107L131.77,497.107C105.278,497.107 83.77,475.598 83.77,449.107L83.77,447.648L83.814,447.648Z" style="fill:rgb(240,163,99);"/>
                                    </g>
                                    <g transform="matrix(1.13771,0,0,1.13771,-33.3442,-62.7192)">
                                        <g>
                                            <g transform="matrix(1,0,0,1,-1.67862,24.1408)">
                                                <path d="M163.768,212.891C166.926,181.909 184.741,155.481 210.93,141.299L195.654,114.773C195.379,114.3 195.234,113.762 195.234,113.215C195.234,111.513 196.634,110.113 198.336,110.113C199.44,110.113 200.464,110.703 201.019,111.657L216.523,138.526C228.36,133.121 241.682,130.107 256.011,130.107C270.339,130.107 283.662,133.118 295.499,138.526L311.003,111.657C311.549,110.702 312.569,110.11 313.67,110.11C314.217,110.11 314.754,110.256 315.225,110.533C316.692,111.391 317.199,113.3 316.35,114.773L301.037,141.299C327.259,155.481 345.074,181.909 348.232,212.891L348.3,212.891L348.303,213.609L348.3,213.609L348.3,298.391L348.303,298.391L348.3,298.418L348.3,299.199L348.223,299.199C345.041,330.139 327.235,356.532 301.037,370.701L316.35,397.227C317.199,398.7 316.692,400.609 315.225,401.467C314.754,401.744 314.217,401.89 313.67,401.89C312.569,401.89 311.549,401.298 311.003,400.343L295.499,373.474C283.662,378.882 270.339,381.893 256.011,381.893C241.682,381.893 228.36,378.879 216.523,373.474L201.019,400.343C200.464,401.297 199.44,401.887 198.336,401.887C196.634,401.887 195.234,400.487 195.234,398.785C195.234,398.238 195.379,397.7 195.654,397.227L210.93,370.701C184.765,356.532 166.959,330.139 163.777,299.199L163.7,299.199L163.7,298.418L163.697,298.391L163.7,298.391L163.7,213.609L163.697,213.609L163.7,212.891L163.768,212.891Z" style="fill:rgb(242,204,94);"/>
                                            </g>
                                            <g transform="matrix(1,0,0,1,-1.67862,24.1408)">
                                                <path d="M298.347,187.685C294.115,187.667 290.642,184.179 290.642,179.947C290.642,175.702 294.135,172.209 298.38,172.209C302.625,172.209 306.117,175.702 306.117,179.947C306.115,184.192 302.622,187.685 298.376,187.685L298.347,187.685Z" style="fill:rgb(242,204,94);"/>
                                            </g>
                                            <g transform="matrix(1,0,0,1,-1.67862,24.1408)">
                                                <path d="M213.617,187.685C209.372,187.685 205.879,184.192 205.879,179.947C205.879,175.702 209.372,172.209 213.617,172.209C217.861,172.209 221.354,175.702 221.354,179.947C221.352,184.191 217.86,187.683 213.617,187.685Z" style="fill:rgb(242,204,94);"/>
                                            </g>
                                        </g>
                                        <g transform="matrix(0.360557,0,0,0.360557,162.019,93.6888)">
                                            <path d="M380.91,199L423.38,125.43C425.734,121.346 424.329,116.05 420.26,113.67C418.952,112.902 417.463,112.498 415.947,112.498C412.894,112.498 410.065,114.139 408.55,116.79L365.55,191.31C332.72,176.31 295.77,167.96 256.03,167.96C216.29,167.96 179.34,176.32 146.51,191.31L103.51,116.79C101.972,114.142 99.132,112.507 96.07,112.507C91.35,112.507 87.467,116.39 87.467,121.11C87.467,122.627 87.868,124.118 88.63,125.43L131,199C57.8,238.64 8.19,312.77 0,399.55L512,399.55C503.81,312.77 454.2,238.64 380.91,199ZM138.45,327.65C126.677,327.65 116.99,317.963 116.99,306.19C116.99,294.417 126.677,284.73 138.45,284.73C150.223,284.73 159.91,294.417 159.91,306.19C159.905,317.961 150.221,327.645 138.45,327.65ZM373.45,327.65C361.712,327.601 352.08,317.929 352.08,306.19C352.08,294.418 361.767,284.73 373.54,284.73C385.313,284.73 395,294.417 395,306.19C394.995,317.964 385.304,327.65 373.53,327.65L373.45,327.65Z" style="fill:rgb(232,99,109);fill-rule:nonzero;"/>
                                        </g>
                                        <g transform="matrix(1,0,0,1,-1.67862,0)">
                                            <path d="M301.037,394.842L316.35,421.368C317.199,422.841 316.692,424.75 315.225,425.608C314.754,425.885 314.217,426.031 313.67,426.031C312.569,426.031 311.549,425.439 311.003,424.483L295.499,397.615C283.662,403.023 270.339,406.034 256.011,406.034C241.682,406.034 228.36,403.019 216.523,397.615L201.019,424.483C200.464,425.438 199.44,426.028 198.336,426.028C196.634,426.028 195.234,424.627 195.234,422.926C195.234,422.379 195.379,421.841 195.654,421.368L210.93,394.842C184.538,380.549 166.65,353.821 163.697,322.532L348.303,322.532C345.35,353.821 327.462,380.549 301.037,394.842Z" style="fill:rgb(232,99,109);fill-rule:nonzero;"/>
                                        </g>
                                        <g transform="matrix(1,0,0,1,-1.67862,24.1408)">
                                            <path d="M341.753,238.359L341.753,242.155L365.584,255.912C367.057,256.761 368.966,256.254 369.824,254.787C370.101,254.315 370.247,253.779 370.247,253.232C370.247,252.131 369.655,251.111 368.699,250.565L347.547,238.359L341.753,238.359ZM170.247,238.359L170.247,242.155L146.416,255.912C144.943,256.761 143.034,256.254 142.176,254.787C141.899,254.315 141.753,253.779 141.753,253.232C141.753,252.131 142.345,251.111 143.301,250.565L164.453,238.359L170.247,238.359Z" style="fill:rgb(232,99,109);fill-rule:nonzero;"/>
                                        </g>
                                        <g transform="matrix(1,0,0,1,-1.84573,-14)">
                                            <rect x="164.184" y="259.213" width="183.966" height="70.563" style="fill:rgb(232,99,109);"/>
                                        </g>
                                    </g>
                                </g>
                            </g>
                        </g>
                    </g>
                </g>
            </g>
        </g>
    </g>
</svg>
